<svg width="160" height="36" fill="none" xmlns="http://www.w3.org/2000/svg"><path fill-rule="evenodd" clip-rule="evenodd" d="M20.52 21.451H9.05v6.288c0 1.315.095 2.162.285 2.542.19.38.556.57 1.097.57.672 0 1.122-.252 1.348-.756.227-.504.34-1.479.34-2.925v-3.835h8.4v2.148c0 1.796-.113 3.177-.34 4.14-.226.965-.756 1.995-1.59 3.09a7.74 7.74 0 01-3.169 2.465c-1.28.548-2.884.822-4.814.822-1.871 0-3.524-.27-4.957-.81-1.432-.541-2.547-1.282-3.344-2.225A8.035 8.035 0 01.65 29.854c-.307-1.132-.46-2.78-.46-4.941v-8.48c0-2.541.343-4.546 1.03-6.014s1.813-2.593 3.378-3.375c1.564-.781 3.363-1.172 5.395-1.172 2.486 0 4.536.471 6.152 1.413 1.615.943 2.749 2.192 3.4 3.747.65 1.556.975 3.743.975 6.563v3.856zm-8.882-4.733v-2.125c0-1.505-.08-2.476-.241-2.914-.161-.439-.49-.658-.987-.658-.614 0-.995.186-1.14.559-.147.373-.22 1.377-.22 3.013v2.125h2.588zm20.528-10.32l-.154 2.76c.688-1.095 1.506-1.916 2.457-2.464.95-.548 2.032-.822 3.246-.822 2.368 0 4.232 1.096 5.592 3.287.746-1.096 1.587-1.917 2.522-2.465.936-.548 1.974-.822 3.115-.822 1.506 0 2.752.365 3.74 1.096.986.73 1.618 1.625 1.896 2.684.278 1.059.417 2.779.417 5.16v20.662H46.4V16.521c0-2.483-.084-4.02-.253-4.612-.168-.592-.559-.888-1.173-.888-.629 0-1.034.292-1.217.877-.183.584-.274 2.125-.274 4.623v18.953h-8.597V17.003c0-2.848-.07-4.558-.209-5.127-.139-.57-.523-.855-1.151-.855-.395 0-.731.15-1.01.45-.277.299-.43.664-.46 1.095-.029.431-.044 1.348-.044 2.75v20.158h-8.597V6.398h8.75zM67.169 0v35.474h-9.124V0h9.124zm11.097 17.66h-8.312v-1.95c0-2.25.26-3.984.779-5.204.519-1.22 1.56-2.297 3.125-3.232 1.565-.934 3.597-1.402 6.097-1.402 2.998 0 5.257.53 6.777 1.589 1.52 1.059 2.434 2.359 2.742 3.9.307 1.541.46 4.714.46 9.52v14.593h-8.62V32.89c-.54 1.037-1.238 1.815-2.093 2.333-.856.519-1.876.778-3.06.778a7.49 7.49 0 01-4.266-1.304c-1.294-.869-1.94-2.771-1.94-5.708V26.6c0-2.176.343-3.659 1.03-4.448.687-.789 2.39-1.709 5.11-2.76 2.91-1.14 4.467-1.907 4.672-2.301.204-.395.307-1.198.307-2.41 0-1.52-.114-2.51-.34-2.97-.227-.46-.603-.69-1.13-.69-.6 0-.972.194-1.118.58-.147.388-.22 1.392-.22 3.014v3.045zm2.808 3.988c-1.419 1.037-2.241 1.907-2.468 2.608-.226.7-.34 1.709-.34 3.023 0 1.505.1 2.476.296 2.915.198.438.589.657 1.174.657.555 0 .917-.172 1.085-.515.169-.343.253-1.245.253-2.706v-5.982zm30.989-15.25l-3.597 11.591 4.672 17.485h-8.532l-2.763-12.664v12.664h-8.86V0h8.86v14.9l2.763-8.502h7.457zm8.29 21.846v7.23h-6.689v-7.23h6.689zm10.308-10.584h-8.312v-1.95c0-2.25.26-3.984.779-5.204.519-1.22 1.561-2.297 3.125-3.232 1.565-.934 3.597-1.402 6.097-1.402 2.997 0 5.256.53 6.777 1.589s2.434 2.359 2.741 3.9c.308 1.541.461 4.714.461 9.52v14.593h-8.619V32.89c-.541 1.037-1.239 1.815-2.095 2.333-.855.519-1.875.778-3.059.778a7.491 7.491 0 01-4.266-1.304c-1.294-.869-1.941-2.771-1.941-5.708V26.6c0-2.176.344-3.659 1.031-4.448.687-.789 2.391-1.709 5.11-2.76 2.91-1.14 4.467-1.907 4.672-2.301.204-.395.307-1.198.307-2.41 0-1.52-.114-2.51-.34-2.97-.227-.46-.603-.69-1.13-.69-.599 0-.972.194-1.118.58-.147.388-.22 1.392-.22 3.014v3.045zm2.808 3.988c-1.419 1.037-2.241 1.907-2.468 2.608-.226.7-.34 1.709-.34 3.023 0 1.505.099 2.476.296 2.915.198.438.589.657 1.174.657.555 0 .917-.172 1.085-.515.169-.343.253-1.245.253-2.706v-5.982zm25.704-15.25v6.442l-6.536 16.806h6.536v5.828h-15.111v-6.091l6.689-17.157h-6.009V6.398h14.431z" fill="#0A9543"/></svg>