<svg version="1.0" xmlns="http://www.w3.org/2000/svg" width="933.333" height="933.333" viewBox="0 0 700 700"><path d="M73.7 1C40 6.7 13.8 30 3.3 63.7L.5 72.5v555l2.8 8.8c9.5 30.4 30 50.9 60.4 60.4l8.8 2.8h555l8.8-2.8c30.4-9.5 50.9-30 60.4-60.4l2.8-8.8v-555l-2.8-8.8c-9.5-30.4-30-50.9-60.4-60.4L627.5.5 353 .4C202 .3 76.3.6 73.7 1zm284.4 130c3 .6 7.7 2.1 10.4 3.5 2.8 1.4 24.1 18.4 47.5 38l42.5 35.5.5-34.7c.5-38.1.6-38.4 6.5-40.9 5-2.1 70-2.1 75 0 6.8 2.9 6.5-.3 6.5 78.4v70.9l34.3 28.4c45.6 37.9 43.7 36 43.7 42 0 4.7-.3 5.3-10.6 17.6-14.6 17.5-15.5 18.3-20.9 18.3-4.4 0-4.8-.3-123.7-99.5-65.6-54.7-119.6-99.4-120-99.2-.4.1-52.8 43.6-116.4 96.7-63.6 53.1-117.5 97.7-119.7 99.2-2.6 1.9-5.3 2.8-7.8 2.8-4.8 0-6.1-1.2-20.3-18.3C75.3 357.3 75 356.8 75 352c0-4.7.2-5 6.3-10.4 3.4-3 60-50.2 125.7-105 70.3-58.7 121.6-100.7 124.5-102.1 8.4-4.2 17-5.3 26.6-3.5zM407 265.7c31.1 25.6 75.3 62.1 98.3 81l41.7 34.4v84.1c0 63.3-.3 85.1-1.2 88.2-1.8 5.9-9.1 12.9-15 14.4-3.4.9-23.5 1.2-70.7 1.2H394V438h-88v131h-66.1c-47.2 0-67.3-.3-70.7-1.2-5.9-1.5-13.5-8.8-15.1-14.4-.7-2.7-1.1-31-1.1-88.1v-84.1l98.3-81.1c54-44.6 98.4-81 98.7-81 .3-.1 25.9 20.9 57 46.6z"/></svg>